<svg width="416" height="524" viewBox="0 0 416 524" fill="none" xmlns="http://www.w3.org/2000/svg">
<path d="M384.76 98.3101L404.18 103.963L382.044 175.149L365.238 170.258L384.76 98.3101Z" fill="#EBEBEB"/>
<path d="M379.44 184.148L362.648 179.26L357.761 196.052L374.552 200.94L379.44 184.148Z" fill="#EBEBEB"/>
<path d="M120.148 39.4525L135.628 32.1436L161.518 89.6815L148.122 96.0061L120.148 39.4525Z" fill="#EBEBEB"/>
<path d="M164.888 96.8445L151.504 103.163L157.822 116.548L171.207 110.229L164.888 96.8445Z" fill="#EBEBEB"/>
<path d="M374.442 363.987H252.355C252.355 363.987 264.461 330.923 283.09 330.923C301.719 330.923 307.556 353.745 307.556 353.745C307.556 353.745 320.125 341.346 330.449 341.346C340.774 341.346 349.752 357.731 349.752 357.731C349.752 357.731 364.341 348.921 374.442 363.987Z" fill="#EBEBEB"/>
<path d="M188.723 281.129H66.6367C66.6367 281.129 78.7424 248.065 97.3716 248.065C116.001 248.065 121.837 270.887 121.837 270.887C121.837 270.887 134.406 258.488 144.73 258.488C155.055 258.488 164.034 274.873 164.034 274.873C164.034 274.873 178.622 266.062 188.723 281.129Z" fill="#EBEBEB"/>
<path d="M372.745 39.1723H288.02C288.02 39.1723 302.573 11.3896 318.362 10.9851C334.151 10.5807 342.449 32.0113 342.449 32.0113C342.449 32.0113 367.011 12.3006 372.745 39.1723Z" fill="#EBEBEB"/>
<path d="M240.055 84.4136H224.453V508.58H240.055V84.4136Z" fill="#DBDBDB"/>
<path d="M232.253 11.8457L109.668 224.176H354.839L232.253 11.8457Z" fill="#1145FF"/>
<path d="M232.254 42.6035L136.305 208.797H328.205L232.254 42.6035Z" fill="white"/>
<path d="M222.531 90.6953H241.973L240.664 162.341H223.84L222.531 90.6953Z" fill="#1145FF"/>
<path d="M240.657 171.317H223.848V188.127H240.657V171.317Z" fill="#1145FF"/>
<path d="M309.867 75.1723L325.591 52.6331L333.331 60.5127L347.509 43.5205L355.611 52.0127L332.619 66.8202L326.46 59.1396L309.867 75.1723Z" fill="#0B4059"/>
<path d="M304.852 87.7116L326.547 82.8687L326.555 89.7967L342.319 90.853L342.466 98.2613L321.322 94.4302L322.986 87.6579L304.852 87.7116Z" fill="#0B4059"/>
<path d="M297.58 75.1696L295.98 54.2913L303.415 55.1971L303.255 38.1866L311.543 37.2939L306.841 59.3306L300.23 58.0845L297.58 75.1696Z" fill="#0B4059"/>
<path d="M60.0156 509.094L102.439 508.776L144.864 508.661L229.713 508.441L314.562 508.658L356.986 508.773L399.41 509.094L356.986 509.415L314.562 509.53L229.713 509.747L144.864 509.527L102.439 509.412L60.0156 509.094Z" fill="#263238"/>
<path d="M103.983 172.33L103.752 172.271L103.561 172.413C95.9063 178.113 86.4399 181.475 76.1849 181.475C50.8111 181.475 30.2305 160.894 30.2305 135.52C30.2305 110.146 50.8111 89.5645 76.1849 89.5645C101.559 89.5645 122.139 110.146 122.139 135.52C122.139 143.343 120.184 150.735 116.703 157.196L116.586 157.413L116.687 157.638L125.738 177.884L103.983 172.33Z" fill="#EBEBEB" stroke="#263238"/>
<path d="M69.9766 107.511H80.8454L80.1138 147.563H70.7082L69.9766 107.511Z" fill="#1145FF"/>
<path d="M80.1086 152.582H70.7109V161.979H80.1086V152.582Z" fill="#1145FF"/>
</svg>
