<svg xmlns="http://www.w3.org/2000/svg" version="1.1" xmlns:xlink="http://www.w3.org/1999/xlink" xmlns:svgjs="http://svgjs.dev/svgjs" width="1500" height="306" viewBox="0 0 1500 306"><g transform="matrix(1,0,0,1,-0.8471831518621684,-0.1830115384615283)"><svg viewBox="0 0 382 78" data-background-color="#f9f9f9" preserveAspectRatio="xMidYMid meet" height="306" width="1500" xmlns="http://www.w3.org/2000/svg" xmlns:xlink="http://www.w3.org/1999/xlink"><g id="tight-bounds" transform="matrix(1,0,0,1,0.2157493093409073,0.046649999999999636)"><svg viewBox="0 0 381.5685013813182 77.90669999999999" height="77.90669999999999" width="381.5685013813182"><g><svg viewBox="0 0 381.5685013813182 77.90669999999999" height="77.90669999999999" width="381.5685013813182"><g><svg viewBox="0 0 381.5685013813182 77.90669999999999" height="77.90669999999999" width="381.5685013813182"><g id="textblocktransform"><svg viewBox="0 0 381.5685013813182 77.90669999999999" height="77.90669999999999" width="381.5685013813182" id="textblock"><g><svg viewBox="0 0 381.5685013813182 77.90669999999999" height="77.90669999999999" width="381.5685013813182"><g><svg><g></g><g></g></svg></g><g><svg><g><svg></svg></g><g></g></svg></g><g id="text-0"><svg viewBox="0 0 381.5685013813182 77.90669999999999" height="77.90669999999999" width="381.5685013813182"><g transform="matrix(1,0,0,1,0,14.878349999999994)"><svg width="173.95000000000002" viewBox="2.2 -36.5 173.93 48.15" height="48.15" data-palette-color="#030303"><path d="M13.8 0.65Q8.3 0.65 5.25-2.75 2.2-6.15 2.2-12.55L2.2-12.55Q2.2-18.85 5.33-22.45 8.45-26.05 14.15-26.05L14.15-26.05Q18.2-26.05 20.43-24.3 22.65-22.55 22.65-19.7L22.65-19.7Q22.65-17.95 21.73-16.9 20.8-15.85 19.35-15.85L19.35-15.85Q17.7-15.85 17-16.8L17-16.8Q18.65-17.45 18.65-20L18.65-20Q18.65-22.15 17.28-23.23 15.9-24.3 13.8-24.3L13.8-24.3Q10.45-24.3 8.45-21.4 6.45-18.5 6.45-13.15L6.45-13.15Q6.45-7.4 8.75-4.75 11.05-2.1 14.85-2.1L14.85-2.1Q17.6-2.1 19.6-3.45 21.6-4.8 22.2-7.35L22.2-7.35Q22.95-7.1 22.95-6.1L22.95-6.1Q22.95-5.45 22.7-4.75L22.7-4.75Q21.9-2.15 19.53-0.75 17.15 0.65 13.8 0.65L13.8 0.65ZM34 0.5Q31.75 0.5 30.5-0.95 29.25-2.4 29.25-5.05L29.25-5.05 29.25-34.3Q29.25-35.35 29.9-35.93 30.55-36.5 31.6-36.5L31.6-36.5Q32.85-36.5 33.9-35.6L33.9-35.6Q33.5-34.3 33.37-32.25 33.25-30.2 33.25-25.85L33.25-25.85 33.25-5.25Q33.25-3.95 33.72-3.28 34.2-2.6 35.15-2.6L35.15-2.6Q35.7-2.6 36.22-2.88 36.75-3.15 37-3.65L37-3.65Q37.55-2.9 37.55-2.1L37.55-2.1Q37.55-0.95 36.52-0.23 35.5 0.5 34 0.5L34 0.5ZM52.4 0.65Q47 0.65 43.97-2.88 40.95-6.4 40.95-12.7L40.95-12.7Q40.95-19 43.97-22.53 47-26.05 52.4-26.05L52.4-26.05Q57.85-26.05 60.87-22.53 63.9-19 63.9-12.7L63.9-12.7Q63.9-6.4 60.87-2.88 57.85 0.65 52.4 0.65L52.4 0.65ZM52.4-1.15Q55.9-1.15 57.75-4.13 59.6-7.1 59.6-12.7L59.6-12.7Q59.6-18.3 57.75-21.25 55.9-24.2 52.4-24.2L52.4-24.2Q48.9-24.2 47.05-21.25 45.2-18.3 45.2-12.7L45.2-12.7Q45.2-7.1 47.05-4.13 48.9-1.15 52.4-1.15L52.4-1.15ZM76.89-25.35Q77.69-25.35 79.02-25.4 80.34-25.45 81.14-25.5L81.14-25.5 81.09-24.4Q81.04-23.9 80.74-23.58 80.44-23.25 79.99-23.25L79.99-23.25 74.84-23.25 74.84-21.35 74.84-5.25Q74.84-3.95 75.44-3.25 76.04-2.55 77.24-2.55L77.24-2.55Q77.99-2.55 78.67-2.83 79.34-3.1 79.59-3.6L79.59-3.6Q80.14-2.85 80.14-2L80.14-2Q80.14-0.85 78.94-0.15 77.74 0.55 75.89 0.55L75.89 0.55Q73.54 0.55 72.19-0.93 70.84-2.4 70.84-5L70.84-5 70.84-23.25 70.14-23.25Q68.09-23.25 67.14-23.1L67.14-23.1 67.19-24.25Q67.24-25.35 68.29-25.35L68.29-25.35 70.84-25.35 70.84-29.8Q70.84-30.85 71.49-31.43 72.14-32 73.19-32L73.19-32Q74.44-32 75.49-31.1L75.49-31.1Q74.94-29.4 74.89-25.35L74.89-25.35 76.89-25.35ZM107.34-5.7Q107.34-2.1 107.94-0.35L107.94-0.35Q106.94 0.55 105.64 0.55L105.64 0.55Q104.64 0.55 104.02-0.05 103.39-0.65 103.39-1.65L103.39-1.65 103.34-15.15Q103.34-19.55 102.17-21.7 100.99-23.85 98.14-23.85L98.14-23.85Q96.39-23.85 94.77-22.63 93.14-21.4 92.12-18.75 91.09-16.1 91.09-12.05L91.09-12.05Q91.09-5.6 91.19-3.65 91.29-1.7 91.79-0.35L91.79-0.35Q90.74 0.55 89.49 0.55L89.49 0.55Q88.44 0.55 87.82-0.1 87.19-0.75 87.19-1.85L87.19-1.85 87.14-34.3Q87.14-35.4 87.74-35.95 88.34-36.5 89.39-36.5L89.39-36.5Q90.14-36.5 90.79-36.23 91.44-35.95 91.79-35.6L91.79-35.6Q91.39-34.35 91.27-32.63 91.14-30.9 91.09-27.8L91.09-27.8 91.04-20.25Q92.14-23 94.29-24.53 96.44-26.05 99.29-26.05L99.29-26.05Q103.39-26.05 105.34-23.43 107.29-20.8 107.29-15.65L107.29-15.65 107.34-5.7ZM117.49-30Q116.39-30 115.59-30.8 114.79-31.6 114.79-32.7L114.79-32.7Q114.79-33.85 115.59-34.63 116.39-35.4 117.49-35.4L117.49-35.4Q118.64-35.4 119.41-34.63 120.19-33.85 120.19-32.7L120.19-32.7Q120.19-31.6 119.41-30.8 118.64-30 117.49-30L117.49-30ZM119.69-5.7Q119.69-2.05 120.34-0.35L120.34-0.35Q119.29 0.55 118.04 0.55L118.04 0.55Q117.04 0.55 116.41-0.05 115.79-0.65 115.79-1.65L115.79-1.65 115.74-19.8Q115.74-23.25 115.09-25.15L115.09-25.15Q116.14-26.05 117.39-26.05L117.39-26.05Q118.39-26.05 119.01-25.48 119.64-24.9 119.64-23.85L119.64-23.85 119.69-5.7ZM148.99-5.7Q149.09-1.9 149.64-0.35L149.64-0.35Q148.64 0.55 147.34 0.55L147.34 0.55Q146.29 0.55 145.64-0.05 144.99-0.65 144.99-1.65L144.99-1.65 144.99-15.15Q144.94-19.5 143.76-21.6 142.59-23.7 139.79-23.7L139.79-23.7Q138.04-23.7 136.41-22.5 134.79-21.3 133.74-18.7 132.69-16.1 132.69-12.05L132.69-12.05Q132.69-5.6 132.79-3.65 132.89-1.7 133.39-0.35L133.39-0.35Q132.34 0.55 131.09 0.55L131.09 0.55Q130.04 0.55 129.39-0.1 128.74-0.75 128.74-1.85L128.74-1.85 128.74-20.3Q128.69-21.7 128.36-22.3 128.04-22.9 127.34-22.9L127.34-22.9Q126.39-22.9 126.04-22.1L126.04-22.1Q125.44-22.95 125.44-23.7L125.44-23.7Q125.44-24.75 126.24-25.38 127.04-26 128.44-26L128.44-26Q130.34-26 131.34-24.7 132.34-23.4 132.34-20.85L132.34-20.85 132.34-19.85Q133.39-22.8 135.64-24.43 137.89-26.05 140.94-26.05L140.94-26.05Q148.99-26.05 148.99-15.65L148.99-15.65 148.99-5.7ZM163.73 11.65Q160.08 11.65 157.66 10.13 155.23 8.6 155.23 5.65L155.23 5.65Q155.23 4 156.11 2.98 156.98 1.95 158.33 1.95L158.33 1.95Q159.73 1.95 160.33 2.7L160.33 2.7Q158.93 3.75 158.93 5.75L158.93 5.75Q158.93 7.8 160.28 8.88 161.63 9.95 163.88 9.95L163.88 9.95Q168.13 9.95 170.16 6.88 172.18 3.8 172.18-2.25L172.18-2.25 172.18-5.65Q171.28-2.85 169.13-1.33 166.98 0.2 163.88 0.2L163.88 0.2Q155.03 0.2 155.03-12.4L155.03-12.4Q155.03-18.15 157.56-22.1 160.08-26.05 166.43-26.05L166.43-26.05Q169.23-26.05 171.86-25.28 174.48-24.5 176.13-22.75L176.13-22.75 176.13-2.25Q176.13 11.65 163.73 11.65L163.73 11.65ZM164.93-2Q168.63-2 170.38-5.05 172.13-8.1 172.18-12.4L172.18-12.4 172.23-22.35Q171.38-23.25 169.83-23.73 168.28-24.2 166.38-24.2L166.38-24.2Q162.23-24.2 160.76-20.85 159.28-17.5 159.28-12L159.28-12Q159.28-6.7 160.66-4.35 162.03-2 164.93-2L164.93-2Z" opacity="1" transform="matrix(1,0,0,1,0,0)" fill="#030303" class="undefined-yy-0"></path></svg></g><g><svg xmlns="http://www.w3.org/2000/svg" xmlns:xlink="http://www.w3.org/1999/xlink" version="1.1" x="192.34330000000003" y="0" viewBox="14.807 9.639999999999997 70.38499999999999 80.72" enable-background="new 0 0 100 100" xml:space="preserve" height="77.90669999999999" width="67.93190138131813" class="icon-cg-0" data-fill-palette-color="accent" id="cg-0"><g fill="#030303" data-fill-palette-color="accent"><path d="M45.665 34.948c-0.299-3.745-0.556-6.927-0.627-7.617-0.086-0.812-0.428-1.554-1.009-2.147-0.763-1.188-3.126-3.122-10.398-6.467 0.984-0.862 1.747-2.004 1.747-3.641 0-2.997-2.438-5.435-5.436-5.435s-5.436 2.438-5.436 5.435h3.513c0-1.06 0.862-1.922 1.922-1.922 1.06 0 1.922 0.862 1.922 1.922 0 0.803-0.919 1.364-2.432 2.193l-0.281 0.154c-9.004 4.098-11.809 6.398-12.681 7.734-0.598 0.597-0.949 1.349-1.035 2.174-0.072 0.689-0.329 3.862-0.627 7.599l4.518 0.391-0.705 22.978c0.285 0.033 0.466 0.045 0.482 0.082h22.265c0.02-0.045 0.286-0.052 0.688-0.109l-0.705-22.95L45.665 34.948zM35.323 23.468c-1.203 0.474-3.031 0.778-5.086 0.778-2.156 0-4.062-0.334-5.257-0.849 1.57-0.837 3.306-1.702 4.98-2.479C31.763 21.717 33.636 22.608 35.323 23.468z" fill="#030303" data-fill-palette-color="accent"></path><path d="M85.192 26.455c0-0.93-0.009-2.79-10.768-7.739 0.985-0.862 1.747-2.004 1.747-3.641 0-2.997-2.438-5.435-5.436-5.435S65.3 12.079 65.3 15.076h3.514c0-1.06 0.862-1.922 1.922-1.922 1.06 0 1.922 0.862 1.922 1.922 0 0.803-0.919 1.364-2.432 2.193l-0.281 0.155c-13.074 5.95-13.076 8.109-13.076 9.032v4.104h5.796l-0.375 2.809c-0.476 2.781-1.867 4.318-1.867 4.318-0.964 8.788 3.902 18.35 1.385 24.355-7.094 16.928-5.217 28.318-5.217 28.318h5.903 7.935 0.613 7.935 5.903c0 0 1.877-11.391-5.216-28.318-2.517-6.006 2.35-15.568 1.384-24.355 0 0-1.391-1.537-1.866-4.318l-0.375-2.809h6.385V26.455zM75.778 34.685l-5.042 0.662-5.042-0.662v-4.126h10.084V34.685zM81.678 27.045H60.382v-0.237c1.02-1.136 5.918-3.821 10.371-5.89 4.676 2.07 9.833 4.764 10.925 5.914V27.045z" fill="#030303" data-fill-palette-color="accent"></path></g></svg></g><g transform="matrix(1,0,0,1,278.66850138131815,14.603349999999992)"><svg width="102.90000000000002" viewBox="1.9 -36.5 102.89 47.6" height="47.6" data-palette-color="#030303"><path d="M11.2 0.65Q6.55 0.65 4.23-1.03 1.9-2.7 1.9-5.4L1.9-5.4Q1.9-6.65 2.5-7.43 3.1-8.2 4.4-8.2L4.4-8.2Q4.9-8.2 5.2-8.15L5.2-8.15Q5.05-7.55 5.05-6.95L5.05-6.95Q5.05-6.4 5.1-6.05L5.1-6.05Q5.2-3.85 6.93-2.55 8.65-1.25 11.55-1.25L11.55-1.25Q14.4-1.25 16.1-2.25 17.8-3.25 17.8-5.2L17.8-5.2Q17.8-7 16.5-8.05 15.2-9.1 12.4-10.35L12.4-10.35 10.8-11.1Q8-12.4 6.53-13.3 5.05-14.2 3.98-15.75 2.9-17.3 2.9-19.65L2.9-19.65Q2.9-22.9 5.45-24.5 8-26.1 11.9-26.1L11.9-26.1Q16-26.1 18.3-24.78 20.6-23.45 20.6-21.1L20.6-21.1Q20.6-19 18.75-18.8L18.75-18.8Q18.25-18.7 18.1-18.7L18.1-18.7Q17.8-18.7 17.3-18.8L17.3-18.8Q17.4-19.4 17.4-19.8L17.4-19.8Q17.4-20.45 17.25-20.9L17.25-20.9Q17.05-22.55 15.63-23.4 14.2-24.25 11.75-24.25L11.75-24.25Q9.5-24.25 8.05-23.43 6.6-22.6 6.6-20.8L6.6-20.8Q6.6-19.3 7.45-18.23 8.3-17.15 9.47-16.48 10.65-15.8 13.05-14.65L13.05-14.65 14.15-14.15Q16.6-13 18.07-12.13 19.55-11.25 20.58-9.85 21.6-8.45 21.6-6.5L21.6-6.5Q21.6-3.55 19.15-1.45 16.7 0.65 11.2 0.65L11.2 0.65ZM47.7-5.7Q47.7-2.1 48.3-0.35L48.3-0.35Q47.3 0.55 46 0.55L46 0.55Q45 0.55 44.37-0.05 43.75-0.65 43.75-1.65L43.75-1.65 43.7-15.15Q43.7-19.55 42.52-21.7 41.35-23.85 38.5-23.85L38.5-23.85Q36.75-23.85 35.12-22.63 33.5-21.4 32.47-18.75 31.45-16.1 31.45-12.05L31.45-12.05Q31.45-5.6 31.55-3.65 31.65-1.7 32.15-0.35L32.15-0.35Q31.1 0.55 29.85 0.55L29.85 0.55Q28.8 0.55 28.17-0.1 27.55-0.75 27.55-1.85L27.55-1.85 27.5-34.3Q27.5-35.4 28.1-35.95 28.7-36.5 29.75-36.5L29.75-36.5Q30.5-36.5 31.15-36.23 31.8-35.95 32.15-35.6L32.15-35.6Q31.75-34.35 31.62-32.63 31.5-30.9 31.45-27.8L31.45-27.8 31.4-20.25Q32.5-23 34.65-24.53 36.8-26.05 39.65-26.05L39.65-26.05Q43.75-26.05 45.7-23.43 47.65-20.8 47.65-15.65L47.65-15.65 47.7-5.7ZM65.15 0.65Q59.75 0.65 56.72-2.88 53.7-6.4 53.7-12.7L53.7-12.7Q53.7-19 56.72-22.53 59.75-26.05 65.15-26.05L65.15-26.05Q70.59-26.05 73.62-22.53 76.65-19 76.65-12.7L76.65-12.7Q76.65-6.4 73.62-2.88 70.59 0.65 65.15 0.65L65.15 0.65ZM65.15-1.15Q68.65-1.15 70.5-4.13 72.34-7.1 72.34-12.7L72.34-12.7Q72.34-18.3 70.5-21.25 68.65-24.2 65.15-24.2L65.15-24.2Q61.65-24.2 59.8-21.25 57.95-18.3 57.95-12.7L57.95-12.7Q57.95-7.1 59.8-4.13 61.65-1.15 65.15-1.15L65.15-1.15ZM96.14-26.05Q100.94-26.05 102.87-22.48 104.79-18.9 104.79-13.9L104.79-13.9Q104.79-7 102.02-3.18 99.24 0.65 94.24 0.65L94.24 0.65Q91.69 0.65 89.92-0.4 88.14-1.45 87.39-3.35L87.39-3.35 87.39 2.75Q87.39 4.7 87.54 6.8 87.69 8.9 88.04 10.2L88.04 10.2Q87.74 10.55 87.14 10.83 86.54 11.1 85.74 11.1L85.74 11.1Q84.69 11.1 84.04 10.53 83.39 9.95 83.39 8.9L83.39 8.9 83.44-20.2Q83.44-21.6 83.12-22.18 82.79-22.75 82.04-22.75L82.04-22.75Q81.09-22.75 80.74-22L80.74-22Q80.14-22.85 80.14-23.6L80.14-23.6Q80.14-24.6 80.99-25.23 81.84-25.85 83.14-25.85L83.14-25.85Q87.19-25.85 87.19-19.5L87.19-19.5 87.19-19.05Q88.39-22.35 90.62-24.2 92.84-26.05 96.14-26.05L96.14-26.05ZM93.34-1.7Q96.89-1.7 98.72-4.78 100.54-7.85 100.54-13.85L100.54-13.85Q100.54-18.15 99.42-20.88 98.29-23.6 95.14-23.6L95.14-23.6Q92.74-23.6 90.99-21.83 89.24-20.05 88.34-17.05 87.44-14.05 87.44-10.55L87.44-10.55Q87.44-6.45 88.74-4.08 90.04-1.7 93.34-1.7L93.34-1.7Z" opacity="1" transform="matrix(1,0,0,1,0,0)" fill="#030303" class="undefined-yy-1"></path></svg></g></svg></g></svg></g></svg></g></svg></g><g></g></svg></g><defs></defs></svg><rect width="381.5685013813182" height="77.90669999999999" fill="none" stroke="none" visibility="hidden"></rect></g></svg></g></svg>