<svg xmlns="http://www.w3.org/2000/svg" width="24px" height="24px" viewBox="0 0 47.5 47.5" id="clothing"><defs><clipPath id="a"><path d="M0 38h38V0H0v38Z"></path></clipPath></defs><g clip-path="url(#a)" transform="matrix(1.25 0 0 -1.25 0 47.5)"><path fill="#3b88c3" d="M12 35c-3 0-11-2-11-4s1-7 2-9 8 0 9 1 2 12 0 12"></path><path fill="#55acee" d="M2 32.283c-.648-.371-1-.849-1-1.283 0-2 1-7 2-9 .281-.563 1.039-.778 2-.85C4 24 3 28 2 32.283"></path><path fill="#3b88c3" d="M26 35c3 0 11-2 11-4s-1-7-2-9-8 0-9 1-2 12 0 12"></path><path fill="#55acee" d="M36 32.283c.648-.371 1-.849 1-1.283 0-2-1-7-2-9-.281-.563-1.039-.778-2-.85C34 24 35 28 36 32.283"></path><path fill="#3b88c3" d="M26 35h-1.068c-.417-1.695-2.911-3-5.932-3-3.021 0-5.515 1.305-5.932 3H12c-2.209 0-5-1.791-5-4 0 0 0-20-1-24s1.791-4 4-4h18c2.209 0 5 0 4 4s-1 24-1 24c0 2.209-2.791 4-5 4"></path><path fill="#55acee" d="M19 30c3.866 0 7 2.239 7 5h-1.068c-.417-1.695-2.911-3-5.932-3-3.021 0-5.515 1.305-5.932 3H12c0-2.761 3.134-5 7-5"></path></g></svg>